M48
; DRILL file {KiCad 7.0.5} date Sat Dec 16 19:20:03 2023
; FORMAT={-:-/ absolute / inch / decimal}
; #@! TF.CreationDate,2023-12-16T19:20:03-05:00
; #@! TF.GenerationSoftware,Kicad,Pcbnew,7.0.5
; #@! TF.FileFunction,Plated,1,8,PTH
FMAT,2
INCH
; #@! TA.AperFunction,Plated,PTH,ViaDrill
T1C0.0080
; #@! TA.AperFunction,Plated,PTH,ComponentDrill
T2C0.0197
; #@! TA.AperFunction,Plated,PTH,ComponentDrill
T3C0.0350
; #@! TA.AperFunction,Plated,PTH,ComponentDrill
T4C0.0394
; #@! TA.AperFunction,Plated,PTH,ComponentDrill
T5C0.0400
; #@! TA.AperFunction,Plated,PTH,ComponentDrill
T6C0.0591
; #@! TA.AperFunction,Plated,PTH,ComponentDrill
T7C0.0640
; #@! TA.AperFunction,Plated,PTH,ComponentDrill
T8C0.0669
; #@! TA.AperFunction,Plated,PTH,ComponentDrill
T9C0.0984
%
G90
G05
T1
X3.9555Y-4.1129
X3.9555Y-4.147
X3.9559Y-4.0746
X3.9559Y-4.2182
X3.9563Y-4.3599
X3.957Y-4.1826
X3.9571Y-4.3259
X3.9575Y-4.3928
X3.97Y-4.2923
X3.9758Y-4.2499
X3.9965Y-4.0669
X3.9968Y-4.0996
X3.9972Y-4.1319
X3.9974Y-4.163
X3.9982Y-4.1962
X4.0005Y-4.3545
X4.0005Y-4.3932
X4.0036Y-4.3216
X4.0067Y-4.2628
X4.0139Y-4.2218
X4.0298Y-4.3028
X4.0371Y-3.5195
X4.0371Y-3.5646
X4.0443Y-3.1021
X4.0449Y-3.0646
X4.0486Y-4.2643
X4.0496Y-4.2268
X4.0692Y-3.5642
X4.0697Y-3.5195
X4.0839Y-4.2268
X4.0846Y-3.0646
X4.0853Y-4.2643
X4.0854Y-3.1027
X4.1028Y-3.565
X4.1036Y-3.52
X4.1059Y-4.3024
X4.1144Y-4.2268
X4.1159Y-4.2647
X4.1201Y-3.1023
X4.1224Y-3.0634
X4.1336Y-4.3022
X4.1367Y-3.5189
X4.138Y-3.5654
X4.1491Y-4.2264
X4.1511Y-4.2639
X4.1514Y-3.1036
X4.1528Y-3.0642
X4.1669Y-4.3024
X4.1693Y-3.5111
X4.1728Y-2.9008
X4.1755Y-3.2542
X4.1759Y-3.2197
X4.1767Y-3.2913
X4.1771Y-3.4749
X4.1772Y-3.3292
X4.1772Y-3.3656
X4.1772Y-3.402
X4.1783Y-3.1853
X4.1783Y-3.4372
X4.1791Y-3.5623
X4.18Y-4.2643
X4.1818Y-4.2267
X4.1835Y-3.1035
X4.1839Y-3.0638
X4.1982Y-3.1556
X4.1984Y-4.3024
X4.2012Y-2.6433
X4.2065Y-3.5427
X4.2162Y-3.3269
X4.2166Y-3.364
X4.217Y-3.2881
X4.2177Y-3.4371
X4.2177Y-4.2268
X4.2178Y-3.2498
X4.2178Y-3.4028
X4.2178Y-3.4751
X4.2189Y-3.0634
X4.2191Y-4.2651
X4.2194Y-3.5118
X4.2197Y-3.1036
X4.2225Y-3.2165
X4.2299Y-3.1392
X4.2303Y-3.1858
X4.2307Y-4.302
X4.25Y-4.2643
X4.2508Y-4.2268
X4.2524Y-3.1036
X4.2528Y-2.9008
X4.2528Y-3.063
X4.2646Y-3.1766
X4.2651Y-3.1353
X4.2653Y-4.3027
X4.2818Y-4.2273
X4.282Y-4.8195
X4.2841Y-4.2647
X4.2848Y-3.1033
X4.2858Y-3.0622
X4.2967Y-3.1764
X4.2972Y-3.1372
X4.2982Y-4.3027
X4.306Y-3.8275
X4.3171Y-3.104
X4.3177Y-4.3587
X4.318Y-4.7625
X4.3193Y-4.2264
X4.3193Y-3.0634
X4.32Y-4.8785
X4.322Y-4.2639
X4.3294Y-3.1762
X4.3297Y-3.1376
X4.3319Y-4.3031
X4.3491Y-3.0623
X4.3497Y-3.1051
X4.352Y-3.2945
X4.352Y-3.8265
X4.3576Y-4.2272
X4.36Y-4.2663
X4.3617Y-3.5815
X4.3641Y-3.1376
X4.3649Y-3.1766
X4.3701Y-2.9028
X4.3717Y-4.3024
X4.3804Y-3.0626
X4.381Y-3.1054
X4.381Y-3.8745
X4.383Y-3.7725
X4.383Y-4.5005
X4.3843Y-4.4638
X4.385Y-3.2205
X4.39Y-3.6885
X4.3932Y-4.2268
X4.3993Y-3.1396
X4.4Y-2.6457
X4.4006Y-3.1821
X4.405Y-3.6555
X4.4059Y-4.3019
X4.406Y-4.2645
X4.4067Y-4.196
X4.4133Y-3.4533
X4.4133Y-3.4848
X4.4133Y-3.5163
X4.4133Y-3.7052
X4.4133Y-3.7997
X4.4133Y-3.8312
X4.4159Y-3.0629
X4.4165Y-3.1056
X4.4338Y-3.3315
X4.4348Y-4.3019
X4.4351Y-4.2659
X4.4409Y-4.0367
X4.4448Y-3.4533
X4.4448Y-3.4848
X4.4448Y-3.5163
X4.4448Y-3.5478
X4.4448Y-3.5793
X4.4448Y-3.6108
X4.4448Y-3.6423
X4.4448Y-3.6737
X4.4448Y-3.7052
X4.4448Y-3.7997
X4.4448Y-3.8312
X4.45Y-2.9031
X4.4511Y-3.0626
X4.4517Y-3.1054
X4.4562Y-3.3315
X4.4634Y-4.0367
X4.4666Y-4.3019
X4.4707Y-4.2643
X4.4763Y-3.5478
X4.4763Y-3.5793
X4.4763Y-3.6108
X4.4763Y-3.6737
X4.4763Y-3.7052
X4.4763Y-3.7367
X4.4763Y-3.7997
X4.4764Y-4.3587
X4.4845Y-3.0623
X4.485Y-3.1051
X4.4933Y-4.2479
X4.4962Y-4.2158
X4.4971Y-4.3012
X4.5014Y-4.19
X4.505Y-3.2185
X4.505Y-3.3315
X4.5078Y-3.4533
X4.5078Y-3.5163
X4.5078Y-3.5478
X4.5078Y-3.5793
X4.5078Y-3.7052
X4.5078Y-3.7367
X4.5078Y-3.7682
X4.5078Y-3.7997
X4.5078Y-3.8312
X4.5095Y-4.0367
X4.5095Y-4.1565
X4.5165Y-3.0626
X4.5171Y-3.1054
X4.5299Y-4.3028
X4.5315Y-4.2638
X4.535Y-4.4975
X4.5393Y-3.4533
X4.5393Y-3.5163
X4.5393Y-3.5478
X4.5393Y-3.6737
X4.5393Y-3.7052
X4.5393Y-3.7367
X4.5393Y-3.7682
X4.5393Y-3.8312
X4.5443Y-3.2185
X4.5495Y-4.1565
X4.5504Y-3.1094
X4.5516Y-3.0651
X4.5583Y-3.9717
X4.5591Y-3.1382
X4.5602Y-3.1821
X4.5623Y-4.3004
X4.5707Y-3.4533
X4.5707Y-3.5163
X4.5707Y-3.5478
X4.5707Y-3.6737
X4.5707Y-3.7052
X4.5707Y-3.7367
X4.5707Y-3.7682
X4.5707Y-3.7997
X4.5707Y-3.8312
X4.5741Y-4.2639
X4.5796Y-3.0808
X4.5878Y-4.8205
X4.5898Y-3.3315
X4.5957Y-4.3012
X4.5969Y-3.1051
X4.5988Y-4.0365
X4.601Y-3.1361
X4.6043Y-4.2485
X4.6122Y-3.3315
X4.6212Y-4.0365
X4.6232Y-3.9886
X4.6303Y-4.2972
X4.6337Y-3.4533
X4.6337Y-3.5163
X4.6337Y-3.5478
X4.6337Y-3.5793
X4.6337Y-3.6108
X4.6337Y-3.7052
X4.6337Y-3.7367
X4.6337Y-3.7682
X4.6337Y-3.7997
X4.6337Y-3.8312
X4.639Y-3.3675
X4.6458Y-4.2759
X4.6502Y-4.2472
X4.658Y-3.2084
X4.6595Y-4.19
X4.6652Y-3.4533
X4.6652Y-3.4848
X4.6652Y-3.5478
X4.6652Y-3.5793
X4.6652Y-3.6108
X4.6652Y-3.6737
X4.6652Y-3.7052
X4.6652Y-3.7367
X4.6652Y-3.7682
X4.6652Y-3.7997
X4.6652Y-3.8312
X4.6695Y-4.1565
X4.6967Y-3.4533
X4.6967Y-3.4848
X4.6967Y-3.5478
X4.6967Y-3.5793
X4.6967Y-3.6108
X4.6967Y-3.6737
X4.6967Y-3.7052
X4.6967Y-3.7367
X4.6967Y-3.7682
X4.6967Y-3.7997
X4.6967Y-3.8312
X4.7024Y-4.4587
X4.7095Y-4.0367
X4.7095Y-4.1563
X4.7114Y-4.5827
X4.715Y-3.3325
X4.7282Y-3.4848
X4.7282Y-3.5478
X4.7282Y-3.5793
X4.7282Y-3.6108
X4.7282Y-3.6737
X4.7282Y-3.7052
X4.7282Y-3.7367
X4.7282Y-3.7682
X4.7282Y-3.7997
X4.7282Y-3.8312
X4.7319Y-3.972
X4.7445Y-4.1988
X4.7445Y-4.2189
X4.7449Y-4.7492
X4.7465Y-4.8232
X4.7597Y-3.4533
X4.7597Y-3.4848
X4.7597Y-3.5163
X4.7597Y-3.5478
X4.7597Y-3.5793
X4.7597Y-3.6108
X4.7597Y-3.6737
X4.7597Y-3.7367
X4.7597Y-3.7682
X4.7597Y-3.7997
X4.765Y-3.972
X4.773Y-3.4105
X4.7912Y-3.4533
X4.7912Y-3.4848
X4.7912Y-3.5163
X4.7912Y-3.5478
X4.7912Y-3.5793
X4.7912Y-3.6108
X4.7912Y-3.6737
X4.7912Y-3.7367
X4.7912Y-3.7682
X4.7912Y-3.7997
X4.828Y-3.5478
X4.831Y-3.8655
X4.8882Y-4.472
X4.889Y-4.5735
X4.8902Y-4.5205
X4.913Y-3.7835
X4.913Y-3.8115
X4.9223Y-3.728
X4.9233Y-3.653
X4.9233Y-3.69
X4.9256Y-3.0445
X4.9543Y-3.8555
X4.9563Y-3.8941
X4.9669Y-4.4429
X4.9776Y-4.8303
X4.978Y-4.7555
X4.9787Y-4.7929
X4.9835Y-4.1382
X4.994Y-3.8225
X4.995Y-3.1045
X5.0Y-2.872
X5.002Y-4.6228
X5.0191Y-4.2734
X5.021Y-4.2357
X5.0219Y-4.1985
X5.031Y-4.0755
X5.035Y-3.8215
X5.0413Y-4.3949
X5.059Y-4.236
X5.0602Y-4.2747
X5.0612Y-4.1979
X5.0882Y-4.3968
X5.0957Y-4.5497
X5.0966Y-3.3713
X5.0966Y-3.4028
X5.0966Y-3.4343
X5.0966Y-3.4658
X5.0966Y-3.4973
X5.0966Y-3.5288
X5.0966Y-3.6233
X5.0966Y-3.6548
X5.0966Y-3.7178
X5.0966Y-3.8753
X5.0966Y-3.9068
X5.0966Y-3.9383
X5.0966Y-3.9697
X5.0966Y-4.0012
X5.0977Y-4.2719
X5.098Y-4.6118
X5.098Y-4.1979
X5.0984Y-4.4838
X5.0986Y-4.2357
X5.12Y-4.0785
X5.123Y-4.7225
X5.1281Y-3.3713
X5.1281Y-3.4343
X5.1281Y-3.4658
X5.1281Y-3.5918
X5.1281Y-3.6233
X5.1281Y-3.7808
X5.1281Y-3.8438
X5.1281Y-3.8753
X5.1281Y-3.9068
X5.1281Y-3.9383
X5.1281Y-3.9697
X5.1281Y-4.0012
X5.14Y-3.2665
X5.1496Y-2.874
X5.1504Y-4.5492
X5.1514Y-4.6141
X5.1537Y-4.4838
X5.1596Y-3.3713
X5.1596Y-3.4658
X5.1596Y-3.4973
X5.1596Y-3.5288
X5.1596Y-3.5603
X5.1596Y-3.6548
X5.1596Y-3.8438
X5.1596Y-3.8753
X5.1596Y-3.9068
X5.1596Y-3.9383
X5.1596Y-3.9697
X5.1596Y-4.0012
X5.165Y-4.1385
X5.1713Y-4.2449
X5.1911Y-3.3713
X5.1911Y-3.4028
X5.1911Y-3.4658
X5.1911Y-3.4973
X5.1911Y-3.5288
X5.1911Y-3.5603
X5.1911Y-3.5918
X5.1911Y-3.7493
X5.1911Y-3.8753
X5.1911Y-3.9068
X5.1911Y-3.9383
X5.1911Y-3.9697
X5.1911Y-4.0012
X5.196Y-4.7085
X5.1961Y-4.8776
X5.2029Y-4.4834
X5.2034Y-4.6141
X5.2048Y-4.5506
X5.21Y-3.2665
X5.2226Y-3.3713
X5.2226Y-3.4028
X5.2226Y-3.4343
X5.2226Y-3.4658
X5.2226Y-3.4973
X5.2226Y-3.5288
X5.2226Y-3.5603
X5.2226Y-3.6233
X5.2226Y-3.8438
X5.2226Y-3.8753
X5.2226Y-3.9068
X5.2226Y-3.9383
X5.2226Y-3.9697
X5.2226Y-4.0012
X5.25Y-4.1045
X5.251Y-4.1415
X5.253Y-4.7145
X5.2531Y-4.8323
X5.2541Y-3.3713
X5.2541Y-3.4028
X5.2541Y-3.4343
X5.2541Y-3.4658
X5.2541Y-3.4973
X5.2541Y-3.5288
X5.2541Y-3.5603
X5.2541Y-3.7178
X5.2541Y-3.8438
X5.2541Y-3.8753
X5.2541Y-3.9068
X5.2541Y-3.9383
X5.2541Y-3.9697
X5.2541Y-4.0012
X5.2614Y-4.428
X5.27Y-4.2015
X5.27Y-4.2815
X5.27Y-4.241
X5.2856Y-3.3713
X5.2856Y-3.4028
X5.2856Y-3.4343
X5.2856Y-3.4658
X5.2856Y-3.4973
X5.2856Y-3.5288
X5.2856Y-3.5603
X5.2856Y-3.6233
X5.2856Y-3.7808
X5.2856Y-3.8438
X5.2856Y-3.8753
X5.2856Y-3.9068
X5.2856Y-3.9383
X5.2856Y-3.9697
X5.2856Y-4.0012
X5.3028Y-4.573
X5.3055Y-4.0429
X5.308Y-4.7525
X5.317Y-3.4028
X5.317Y-3.4343
X5.317Y-3.4658
X5.317Y-3.4973
X5.317Y-3.5288
X5.317Y-3.5603
X5.317Y-3.5918
X5.317Y-3.6233
X5.317Y-3.6548
X5.317Y-3.7178
X5.317Y-3.7493
X5.317Y-3.7808
X5.317Y-3.8123
X5.317Y-3.8438
X5.317Y-3.8753
X5.317Y-3.9068
X5.317Y-3.9383
X5.317Y-4.0012
X5.323Y-2.8755
X5.3307Y-4.1
X5.3335Y-4.0709
X5.3339Y-4.4402
X5.3485Y-3.4028
X5.3485Y-3.4343
X5.3485Y-3.4658
X5.3485Y-3.4973
X5.3485Y-3.5288
X5.3485Y-3.5603
X5.3485Y-3.6233
X5.3485Y-3.7178
X5.3485Y-3.7493
X5.3485Y-3.7808
X5.3485Y-3.8123
X5.3485Y-3.8438
X5.3485Y-3.8753
X5.3485Y-3.9068
X5.3485Y-3.9383
X5.3485Y-3.9697
X5.3485Y-4.0012
X5.3594Y-4.8756
X5.364Y-4.1225
X5.369Y-3.3095
X5.38Y-3.4658
X5.38Y-3.4973
X5.38Y-3.5288
X5.38Y-3.5603
X5.38Y-3.5918
X5.38Y-3.6233
X5.38Y-3.6863
X5.38Y-3.7178
X5.38Y-3.7493
X5.38Y-3.7808
X5.38Y-3.8123
X5.38Y-3.8438
X5.38Y-3.8753
X5.38Y-3.9068
X5.38Y-3.9383
X5.38Y-3.9697
X5.38Y-4.0012
X5.4088Y-4.4721
X5.4103Y-4.5213
X5.4115Y-4.5709
X5.4127Y-4.6189
X5.4205Y-3.0453
X5.4429Y-4.0709
X5.443Y-3.3713
X5.443Y-3.4973
X5.443Y-3.5288
X5.443Y-3.5603
X5.443Y-3.5918
X5.443Y-3.6233
X5.443Y-3.6548
X5.443Y-3.7178
X5.443Y-3.7493
X5.443Y-3.7808
X5.443Y-3.8123
X5.443Y-3.8753
X5.443Y-3.9068
X5.443Y-3.9383
X5.443Y-3.9697
X5.443Y-4.0012
X5.4618Y-4.2791
X5.4745Y-3.4343
X5.4745Y-3.5288
X5.4745Y-3.5603
X5.4745Y-3.5918
X5.4745Y-3.6548
X5.4745Y-3.7178
X5.4745Y-3.8438
X5.4745Y-3.9068
X5.4745Y-3.9383
X5.489Y-4.2995
X5.4965Y-4.1157
X5.506Y-3.4973
X5.506Y-3.5288
X5.506Y-3.5603
X5.506Y-3.5918
X5.506Y-3.6548
X5.506Y-3.7178
X5.506Y-3.7493
X5.506Y-3.7808
X5.506Y-3.8123
X5.506Y-3.8438
X5.506Y-3.8753
X5.506Y-3.9068
X5.506Y-3.9383
X5.506Y-4.0012
X5.518Y-3.1255
X5.52Y-3.1795
X5.52Y-3.2385
X5.5295Y-4.8402
X5.536Y-4.2515
X5.5375Y-3.4028
X5.5375Y-3.5918
X5.5375Y-3.6548
X5.5375Y-3.7178
X5.5375Y-3.7493
X5.5375Y-3.7808
X5.5375Y-3.8123
X5.5375Y-3.8438
X5.5375Y-3.8753
X5.5375Y-3.9068
X5.5375Y-3.9383
X5.5378Y-3.5286
X5.555Y-4.0395
X5.569Y-3.4658
X5.569Y-3.4973
X5.569Y-3.5288
X5.569Y-3.5603
X5.569Y-3.5918
X5.569Y-3.6233
X5.569Y-3.6548
X5.569Y-3.7178
X5.569Y-3.7493
X5.569Y-3.8123
X5.569Y-3.8438
X5.569Y-3.8753
X5.569Y-3.9383
X5.569Y-3.9697
X5.575Y-3.2795
X5.576Y-3.3165
X5.5953Y-4.2217
X5.596Y-4.0405
X5.6005Y-3.3713
X5.6005Y-3.5288
X5.6005Y-3.5603
X5.6005Y-3.5918
X5.6005Y-3.6233
X5.6005Y-3.6548
X5.6005Y-3.7178
X5.6005Y-3.7493
X5.6005Y-3.7808
X5.6005Y-3.8123
X5.6005Y-3.8438
X5.6005Y-3.8753
X5.6005Y-3.9068
X5.6005Y-3.9383
X5.6005Y-3.9697
X5.6043Y-4.1323
X5.632Y-3.4343
X5.632Y-3.5288
X5.632Y-3.5603
X5.632Y-3.5918
X5.632Y-3.6233
X5.632Y-3.6548
X5.632Y-3.7178
X5.632Y-3.7493
X5.632Y-3.7808
X5.632Y-3.8123
X5.632Y-3.8438
X5.632Y-3.8753
X5.632Y-3.9068
X5.632Y-3.9383
X5.632Y-3.9697
X5.632Y-4.0012
X5.635Y-3.3175
X5.64Y-4.1165
X5.651Y-3.0745
X5.6635Y-3.4973
X5.6635Y-3.5918
X5.6635Y-3.6233
X5.6635Y-3.6548
X5.6635Y-3.7178
X5.6635Y-3.7493
X5.6635Y-3.7808
X5.6635Y-3.8123
X5.6635Y-3.8438
X5.6635Y-3.8753
X5.6635Y-3.9068
X5.6635Y-3.9383
X5.6635Y-3.9697
X5.6635Y-4.0012
X5.664Y-4.2815
X5.666Y-3.0175
X5.666Y-4.1325
X5.687Y-3.3175
X5.695Y-3.4028
X5.695Y-3.5603
X5.695Y-3.5918
X5.695Y-3.6233
X5.695Y-3.6548
X5.695Y-3.7178
X5.695Y-3.7493
X5.695Y-3.7808
X5.695Y-3.8123
X5.695Y-3.8438
X5.695Y-3.8753
X5.695Y-3.9068
X5.695Y-3.9383
X5.695Y-3.9697
X5.695Y-4.0012
X5.7019Y-4.1251
X5.7091Y-4.2067
X5.714Y-4.2815
X5.7208Y-4.6811
X5.722Y-4.0693
X5.7265Y-3.4658
X5.7265Y-3.5918
X5.7265Y-3.6233
X5.7265Y-3.6548
X5.7265Y-3.7178
X5.7265Y-3.7493
X5.7265Y-3.7808
X5.7265Y-3.8123
X5.7265Y-3.8438
X5.7265Y-3.8753
X5.7265Y-3.9068
X5.7265Y-3.9383
X5.7265Y-3.9697
X5.7265Y-4.0012
X5.742Y-3.3225
X5.757Y-4.2795
X5.766Y-3.8915
X5.766Y-3.9375
X5.797Y-4.2705
X5.801Y-3.7175
X5.809Y-4.7795
X5.81Y-3.3225
X5.812Y-3.2725
X5.813Y-4.6083
X5.823Y-3.8685
X5.826Y-3.7975
X5.827Y-3.5645
X5.841Y-3.2275
X5.8516Y-4.0744
X5.8551Y-4.1551
X5.8561Y-3.1493
X5.8577Y-3.1048
X5.8751Y-3.1281
X5.882Y-3.765
X5.882Y-3.9383
X5.8937Y-3.1048
X5.8939Y-3.1502
X5.8973Y-3.9974
X5.9169Y-3.7186
X5.917Y-3.6055
X5.921Y-3.5455
X5.9307Y-4.1587
X5.94Y-3.8315
X5.94Y-3.9076
X5.944Y-3.4634
X5.944Y-3.5036
X5.95Y-3.0715
X5.961Y-2.9825
X5.965Y-3.1555
X5.968Y-2.9085
X5.977Y-3.0195
X6.002Y-3.2385
X6.006Y-4.2685
X6.011Y-4.1555
X6.012Y-3.1985
X6.051Y-3.0995
X6.0543Y-3.3012
X6.0591Y-4.4429
X6.0637Y-3.8402
X6.064Y-3.4623
X6.064Y-3.5024
X6.0644Y-3.5449
X6.0846Y-4.7843
X6.108Y-4.1245
X6.1217Y-3.2945
X6.135Y-3.0045
X6.1362Y-4.4402
X6.1473Y-3.4308
X6.1473Y-3.4623
X6.1473Y-3.4938
X6.1473Y-3.5253
X6.1473Y-3.5568
X6.1473Y-3.6198
X6.1473Y-3.7143
X6.1473Y-3.7458
X6.1473Y-3.7773
X6.1473Y-3.8087
X6.1473Y-3.8402
X6.1473Y-3.8717
X6.1473Y-3.9032
X6.1473Y-3.9347
X6.1591Y-3.0996
X6.1764Y-3.3276
X6.1788Y-3.4308
X6.1788Y-3.4623
X6.1788Y-3.4938
X6.1788Y-3.5253
X6.1788Y-3.5568
X6.1788Y-3.5883
X6.1788Y-3.6198
X6.1788Y-3.6513
X6.1788Y-3.7143
X6.1788Y-3.7458
X6.1788Y-3.7773
X6.1788Y-3.8087
X6.1788Y-3.8402
X6.1788Y-3.8717
X6.1788Y-3.9032
X6.1788Y-3.9347
X6.1823Y-4.3161
X6.1866Y-4.3713
X6.1866Y-4.4094
X6.1898Y-4.4937
X6.222Y-4.2555
X6.2402Y-4.3417
X6.2418Y-3.4308
X6.2418Y-3.4623
X6.2418Y-3.4938
X6.2418Y-3.5253
X6.2418Y-3.5883
X6.2418Y-3.6198
X6.2418Y-3.6513
X6.2418Y-3.7143
X6.2418Y-3.7458
X6.2418Y-3.7773
X6.2418Y-3.8402
X6.2418Y-3.8717
X6.2418Y-3.9032
X6.2418Y-3.9347
X6.2433Y-3.8079
X6.2457Y-3.0378
X6.247Y-4.2785
X6.25Y-4.6634
X6.2634Y-4.5
X6.265Y-4.2015
X6.277Y-3.3355
X6.292Y-4.3161
X6.295Y-3.3625
X6.2957Y-4.3586
X6.2988Y-4.4902
X6.311Y-4.8355
X6.312Y-4.4485
X6.313Y-3.3355
X6.3195Y-4.3136
X6.3217Y-4.7659
X6.322Y-4.2345
X6.326Y-4.1995
X6.328Y-3.6985
X6.3363Y-3.4308
X6.3363Y-3.4623
X6.3363Y-3.4938
X6.3363Y-3.5253
X6.3363Y-3.5568
X6.3363Y-3.5883
X6.3363Y-3.6198
X6.3363Y-3.6513
X6.3363Y-3.7458
X6.3363Y-3.7773
X6.3363Y-3.8087
X6.3363Y-3.8402
X6.3363Y-3.8717
X6.3363Y-3.9032
X6.3363Y-3.9347
X6.3535Y-4.4614
X6.354Y-3.2305
X6.368Y-4.4925
X6.369Y-3.9795
X6.371Y-4.1525
X6.386Y-4.2819
X6.387Y-4.1885
X6.3898Y-4.5539
X6.39Y-4.3825
X6.3992Y-3.4308
X6.3992Y-3.4623
X6.3992Y-3.4938
X6.3992Y-3.5253
X6.3992Y-3.5568
X6.3992Y-3.5883
X6.3992Y-3.6198
X6.3992Y-3.6513
X6.3992Y-3.7143
X6.3992Y-3.7458
X6.3992Y-3.7773
X6.3992Y-3.8087
X6.3992Y-3.8402
X6.3992Y-3.8717
X6.3992Y-3.9032
X6.3992Y-3.9347
X6.4031Y-2.9531
X6.4067Y-3.179
X6.408Y-3.1344
X6.4122Y-3.2752
X6.4143Y-4.5032
X6.4189Y-4.1949
X6.4253Y-3.1569
X6.4307Y-3.4308
X6.4307Y-3.4623
X6.4307Y-3.4938
X6.4307Y-3.5253
X6.4307Y-3.5568
X6.4307Y-3.6198
X6.4307Y-3.7143
X6.4307Y-3.7458
X6.4307Y-3.7773
X6.4307Y-3.8087
X6.4307Y-3.8402
X6.4307Y-3.8717
X6.4307Y-3.9032
X6.4307Y-3.9347
X6.431Y-3.3335
X6.4335Y-3.061
X6.4411Y-4.4994
X6.4424Y-3.1783
X6.4432Y-3.1343
X6.448Y-4.2079
X6.4609Y-4.4304
X6.461Y-4.0858
X6.4622Y-4.3829
X6.4631Y-4.3331
X6.4646Y-4.2773
X6.465Y-2.9256
X6.4667Y-3.0593
X6.48Y-4.0585
X6.486Y-3.6479
X6.486Y-3.6848
X6.4917Y-4.3067
X6.497Y-4.4992
X6.498Y-3.8585
X6.5039Y-4.0854
X6.504Y-4.1955
X6.51Y-4.6587
X6.51Y-4.6885
X6.5119Y-3.1521
X6.519Y-3.7549
X6.524Y-3.9135
X6.5244Y-3.274
X6.527Y-3.1185
X6.536Y-4.5065
X6.536Y-4.1925
X6.5371Y-4.2763
X6.541Y-4.0765
X6.546Y-4.6885
X6.5522Y-4.6575
X6.5531Y-2.8945
X6.5662Y-3.7595
X6.5679Y-3.0758
X6.573Y-3.5505
X6.573Y-3.5883
X6.578Y-4.1966
X6.5787Y-4.085
X6.584Y-4.6885
X6.5896Y-4.6396
X6.594Y-4.4725
X6.6033Y-3.6473
X6.606Y-3.7445
X6.611Y-2.7409
X6.614Y-4.3625
X6.615Y-4.0839
X6.616Y-4.1975
X6.6256Y-4.302
X6.628Y-4.4201
X6.63Y-4.6365
X6.63Y-4.6685
X6.6356Y-4.7711
X6.6356Y-4.8325
X6.652Y-3.1125
X6.6587Y-2.852
X6.66Y-4.7709
X6.662Y-4.8335
X6.667Y-4.6365
X6.667Y-4.6705
X6.67Y-3.7375
X6.686Y-3.8235
X6.691Y-3.1605
X6.697Y-3.0985
X6.7035Y-4.0835
X6.7114Y-4.1535
X6.716Y-2.8975
X6.722Y-3.2875
X6.736Y-2.9595
X6.7449Y-4.502
X6.755Y-3.2875
X6.755Y-3.3355
X6.757Y-3.4325
X6.7701Y-4.502
X6.7866Y-4.5882
X6.793Y-3.6215
X6.799Y-3.6575
X6.7992Y-4.3563
X6.802Y-2.9085
X6.8035Y-2.9949
X6.841Y-3.2775
X6.844Y-3.1315
X6.8457Y-3.185
X6.85Y-3.2375
X6.853Y-3.0695
X6.863Y-3.3965
X6.8638Y-2.7394
X6.8697Y-2.8055
X6.8768Y-3.2807
X6.88Y-3.0115
X6.884Y-3.5985
X6.886Y-3.5595
X6.902Y-3.0661
X6.92Y-3.7355
X6.923Y-3.8565
X6.934Y-3.5575
X6.938Y-3.5275
X6.9394Y-3.0303
X6.9459Y-3.1258
X6.9464Y-3.2257
X6.9465Y-3.1757
X6.95Y-3.7825
X6.953Y-3.7425
X6.9587Y-2.8984
X6.9618Y-3.011
X6.9661Y-2.8551
X6.9696Y-3.3075
X6.9857Y-3.0316
X6.988Y-3.3465
X6.9969Y-3.2266
X6.9991Y-3.1766
X7.0027Y-3.125
X7.0067Y-3.0114
X7.0227Y-3.8075
X7.025Y-3.8328
X7.0276Y-3.9171
X7.028Y-3.5605
X7.0291Y-3.3079
X7.03Y-3.4165
X7.0303Y-3.3857
X7.0386Y-3.9559
X7.0468Y-3.811
X7.0497Y-3.2266
X7.05Y-3.1256
X7.0503Y-3.1745
X7.058Y-3.5285
X7.07Y-3.5015
X7.0709Y-3.9189
X7.0768Y-3.9547
X7.0768Y-3.4004
X7.0891Y-3.4207
X7.102Y-3.4004
X7.1102Y-4.4055
X7.1114Y-3.9563
X7.115Y-3.0095
X7.1264Y-3.1857
X7.1504Y-3.9559
X7.1551Y-3.1854
X7.171Y-3.5875
X7.172Y-3.6215
X7.1783Y-3.2189
X7.1787Y-3.2555
X7.184Y-3.3395
X7.1858Y-3.9323
X7.203Y-3.0695
X7.261Y-2.9385
X7.2618Y-3.1858
X7.2636Y-3.1498
X7.33Y-3.8415
X7.33Y-3.8965
X7.335Y-3.9563
X7.34Y-3.1815
X7.35Y-3.8665
X7.355Y-3.6415
X7.3614Y-3.115
X7.368Y-3.2005
X7.37Y-3.8415
X7.37Y-3.8965
X7.375Y-3.9563
X7.38Y-3.4165
X7.38Y-3.4665
X7.38Y-3.5165
X7.3941Y-4.4481
X7.415Y-3.9563
X7.43Y-3.4165
X7.43Y-3.4665
X7.43Y-3.5165
X7.4386Y-3.1496
X7.4508Y-3.0421
X7.4626Y-3.1228
X7.4743Y-3.365
X7.4827Y-3.6445
X7.5054Y-3.3643
T3
X6.9477Y-4.157
X6.9477Y-4.257
X6.9477Y-4.357
X6.9477Y-4.457
X6.9477Y-4.557
X7.0477Y-4.107
X7.0477Y-4.207
X7.0477Y-4.307
X7.0477Y-4.407
X7.0477Y-4.507
T4
X4.6693Y-2.665
X4.6693Y-2.765
X4.7693Y-2.665
X4.7693Y-2.765
X4.8693Y-2.665
X4.8693Y-2.765
X4.9693Y-2.665
X4.9693Y-2.765
X5.0693Y-2.665
X5.0693Y-2.765
X5.1693Y-2.665
X5.1693Y-2.765
X5.3373Y-2.665
X5.3373Y-2.765
X5.4373Y-2.665
X5.4373Y-2.765
X5.5373Y-2.665
X5.5373Y-2.765
X5.6373Y-2.665
X5.6373Y-2.765
X5.7373Y-2.665
X5.7373Y-2.765
X5.8373Y-2.665
X5.8373Y-2.765
X6.0057Y-2.6688
X6.0057Y-2.7688
X6.1057Y-2.6688
X6.1057Y-2.7688
X6.2057Y-2.6688
X6.2057Y-2.7688
X6.3057Y-2.6688
X6.3057Y-2.7688
X6.4057Y-2.6688
X6.4057Y-2.7688
X6.5057Y-2.6688
X6.5057Y-2.7688
X7.0556Y-2.6686
X7.1556Y-2.6686
X7.2556Y-2.6686
T5
X7.4906Y-4.0711
X7.4906Y-4.1711
X7.4906Y-4.4928
X7.4906Y-4.5928
T6
X3.977Y-3.084
X3.977Y-3.542
X3.9772Y-3.9996
X3.9772Y-4.4583
T7
X7.1776Y-4.027
X7.1776Y-4.6369
T8
X3.877Y-2.984
X3.877Y-3.184
X3.877Y-3.442
X3.877Y-3.642
X3.8772Y-3.8996
X3.8772Y-4.0996
X3.8772Y-4.3583
X3.8772Y-4.5583
X4.077Y-2.984
X4.077Y-3.184
X4.077Y-3.442
X4.077Y-3.642
X4.0772Y-3.8996
X4.0772Y-4.0996
X4.0772Y-4.3583
X4.0772Y-4.5583
T9
X3.9023Y-2.7196
X3.9023Y-4.831
X7.568Y-2.7196
X7.568Y-4.831
T2
G00X7.6204Y-3.0167
M15
G01X7.648Y-3.0167
M16
G05
G00X7.6204Y-3.2766
M15
G01X7.648Y-3.2766
M16
G05
G00X7.6204Y-3.5167
M15
G01X7.648Y-3.5167
M16
G05
G00X7.6204Y-3.7766
M15
G01X7.648Y-3.7766
M16
G05
T0
M30
